<svg xmlns="http://www.w3.org/2000/svg" width="900" height="310" viewBox="0 0 900 310" role="img" aria-label="川序中文导航标志">
  <g transform="translate(30 30) scale(1.0)">
      <rect width="250" height="250" rx="44" fill="#07172E"/>
      <path d="M139 53H96C57 53 31 83 31 124C31 166 58 197 99 197H131L157 161L137 134L113 169H96C73 169 59 151 59 124C59 98 73 81 97 81H139Z" fill="#FFFFFF"/>
      <path d="M107 98H137L204 197H172Z" fill="#FFFFFF"/>
      <path d="M160 62H199L168 108L145 86Z" fill="#1DD6F6"/>
    </g><g transform="translate(0 -27)"><g transform="translate(350 91)" fill="none" stroke-linecap="round" stroke-linejoin="round">
      <path d="M18 12V105C18 141 8 168-8 190" stroke="#0B1B33" stroke-width="18"/>
      <path d="M72 12V188" stroke="#0B1B33" stroke-width="18"/>
      <path d="M126 12V188" stroke="#1DD6F6" stroke-width="18"/>
    </g>
    <g transform="translate(362 82) translate(160 0) scale(1.08 1) translate(-160 0)" fill="none" stroke-linecap="round" stroke-linejoin="round">
      <path d="M160 198C180 170 190 139 190 100V29H310" stroke="#0B1B33" stroke-width="18"/>
      <path d="M210 61H310C295 76 278 89 260 99L229 84" stroke="#0B1B33" stroke-width="17"/>
      <path d="M211 112H310L294 137" stroke="#0B1B33" stroke-width="17"/>
      <path d="M266 113V177C266 193 259 199 245 199" stroke="#0B1B33" stroke-width="17"/>
      <path d="M234 0L250 16" stroke="#1DD6F6" stroke-width="17"/>
    </g></g>
</svg>